<svg width="64" height="64" viewBox="0 0 64 64" fill="none" xmlns="http://www.w3.org/2000/svg">
<circle cx="32" cy="32" r="32" fill="#FAFAFF"/>
<path d="M34.3499 32L41.5166 24.85C41.8304 24.5362 42.0067 24.1105 42.0067 23.6667C42.0067 23.2228 41.8304 22.7972 41.5166 22.4833C41.2027 22.1695 40.7771 21.9932 40.3332 21.9932C39.8894 21.9932 39.4637 22.1695 39.1499 22.4833L31.9999 29.65L24.8499 22.4833C24.5361 22.1695 24.1104 21.9932 23.6666 21.9932C23.2227 21.9932 22.7971 22.1695 22.4832 22.4833C22.1694 22.7972 21.9931 23.2228 21.9931 23.6667C21.9931 24.1105 22.1694 24.5362 22.4832 24.85L29.6499 32L22.4832 39.15C22.327 39.305 22.203 39.4893 22.1184 39.6924C22.0338 39.8955 21.9902 40.1133 21.9902 40.3333C21.9902 40.5534 22.0338 40.7712 22.1184 40.9743C22.203 41.1774 22.327 41.3617 22.4832 41.5167C22.6382 41.6729 22.8225 41.7969 23.0256 41.8815C23.2287 41.9661 23.4465 42.0097 23.6666 42.0097C23.8866 42.0097 24.1044 41.9661 24.3075 41.8815C24.5106 41.7969 24.695 41.6729 24.8499 41.5167L31.9999 34.35L39.1499 41.5167C39.3048 41.6729 39.4892 41.7969 39.6923 41.8815C39.8954 41.9661 40.1132 42.0097 40.3332 42.0097C40.5533 42.0097 40.7711 41.9661 40.9742 41.8815C41.1773 41.7969 41.3616 41.6729 41.5166 41.5167C41.6728 41.3617 41.7968 41.1774 41.8814 40.9743C41.966 40.7712 42.0096 40.5534 42.0096 40.3333C42.0096 40.1133 41.966 39.8955 41.8814 39.6924C41.7968 39.4893 41.6728 39.305 41.5166 39.15L34.3499 32Z" fill="#050505"/>
</svg>
