<svg width="32" height="32" viewBox="0 0 32 32" fill="none" xmlns="http://www.w3.org/2000/svg">
<path d="M23.1203 7.27984C22.8039 7.27984 22.4945 7.37368 22.2314 7.54949C21.9683 7.7253 21.7632 7.97518 21.6421 8.26754C21.521 8.55991 21.4893 8.88161 21.5511 9.19198C21.6128 9.50235 21.7652 9.78744 21.989 10.0112C22.2127 10.235 22.4978 10.3874 22.8082 10.4491C23.1185 10.5108 23.4403 10.4791 23.7326 10.358C24.025 10.2369 24.2749 10.0319 24.4507 9.76875C24.6265 9.50563 24.7203 9.19629 24.7203 8.87984C24.7203 8.45549 24.5518 8.04852 24.2517 7.74847C23.9516 7.44841 23.5447 7.27984 23.1203 7.27984ZM29.2537 10.5065C29.2277 9.40023 29.0205 8.30571 28.6403 7.2665C28.3013 6.37735 27.7736 5.57221 27.0937 4.9065C26.4334 4.22307 25.6264 3.69874 24.7337 3.37317C23.6972 2.98138 22.6015 2.76945 21.4937 2.7465C20.0803 2.6665 19.627 2.6665 16.0003 2.6665C12.3737 2.6665 11.9203 2.6665 10.507 2.7465C9.3992 2.76945 8.30345 2.98138 7.26699 3.37317C6.37589 3.70204 5.56957 4.22592 4.90699 4.9065C4.22356 5.56674 3.69923 6.37376 3.37366 7.2665C2.98187 8.30296 2.76994 9.39871 2.74699 10.5065C2.66699 11.9198 2.66699 12.3732 2.66699 15.9998C2.66699 19.6265 2.66699 20.0798 2.74699 21.4932C2.76994 22.601 2.98187 23.6967 3.37366 24.7332C3.69923 25.6259 4.22356 26.4329 4.90699 27.0932C5.56957 27.7738 6.37589 28.2976 7.26699 28.6265C8.30345 29.0183 9.3992 29.2302 10.507 29.2532C11.9203 29.3332 12.3737 29.3332 16.0003 29.3332C19.627 29.3332 20.0803 29.3332 21.4937 29.2532C22.6015 29.2302 23.6972 29.0183 24.7337 28.6265C25.6264 28.3009 26.4334 27.7766 27.0937 27.0932C27.7766 26.4299 28.3048 25.6241 28.6403 24.7332C29.0205 23.694 29.2277 22.5994 29.2537 21.4932C29.2537 20.0798 29.3337 19.6265 29.3337 15.9998C29.3337 12.3732 29.3337 11.9198 29.2537 10.5065ZM26.8537 21.3332C26.8439 22.1795 26.6907 23.0181 26.4003 23.8132C26.1874 24.3934 25.8455 24.9177 25.4003 25.3465C24.9679 25.7872 24.4446 26.1284 23.867 26.3465C23.0719 26.6368 22.2334 26.7901 21.387 26.7998C20.0537 26.8665 19.5603 26.8798 16.0537 26.8798C12.547 26.8798 12.0537 26.8798 10.7203 26.7998C9.84151 26.8163 8.96645 26.681 8.13366 26.3998C7.58137 26.1706 7.08213 25.8302 6.66699 25.3998C6.22444 24.9715 5.88678 24.4468 5.68033 23.8665C5.3548 23.06 5.17425 22.2024 5.14699 21.3332C5.14699 19.9998 5.06699 19.5065 5.06699 15.9998C5.06699 12.4932 5.06699 11.9998 5.14699 10.6665C5.15297 9.80124 5.31093 8.94376 5.61366 8.13317C5.84839 7.57038 6.20868 7.06871 6.66699 6.6665C7.07208 6.20806 7.57271 5.84396 8.13366 5.59984C8.94639 5.30656 9.80299 5.15328 10.667 5.1465C12.0003 5.1465 12.4937 5.0665 16.0003 5.0665C19.507 5.0665 20.0003 5.0665 21.3337 5.1465C22.18 5.15621 23.0186 5.3095 23.8137 5.59984C24.4196 5.82471 24.9634 6.1903 25.4003 6.6665C25.8373 7.07607 26.1787 7.57681 26.4003 8.13317C26.6967 8.94508 26.85 9.80221 26.8537 10.6665C26.9203 11.9998 26.9337 12.4932 26.9337 15.9998C26.9337 19.5065 26.9203 19.9998 26.8537 21.3332ZM16.0003 9.15984C14.6481 9.16247 13.3269 9.56587 12.2039 10.3191C11.0808 11.0723 10.2062 12.1414 9.6905 13.3915C9.17484 14.6416 9.04129 16.0165 9.30672 17.3424C9.57214 18.6684 10.2246 19.8859 11.1818 20.8411C12.1389 21.7964 13.3577 22.4465 14.6841 22.7094C16.0106 22.9722 17.3852 22.836 18.6343 22.3179C19.8834 21.7998 20.9508 20.9231 21.7018 19.7985C22.4528 18.674 22.8537 17.3521 22.8537 15.9998C22.8554 15.1 22.6793 14.2086 22.3353 13.3771C21.9914 12.5456 21.4864 11.7902 20.8495 11.1546C20.2126 10.5189 19.4563 10.0154 18.6241 9.67308C17.7919 9.33074 16.9002 9.15632 16.0003 9.15984ZM16.0003 20.4398C15.1222 20.4398 14.2637 20.1794 13.5336 19.6916C12.8034 19.2037 12.2344 18.5103 11.8983 17.699C11.5622 16.8876 11.4743 15.9949 11.6456 15.1336C11.817 14.2724 12.2398 13.4812 12.8608 12.8603C13.4817 12.2393 14.2728 11.8165 15.1341 11.6452C15.9954 11.4738 16.8881 11.5618 17.6994 11.8978C18.5107 12.2339 19.2042 12.8029 19.692 13.5331C20.1799 14.2633 20.4403 15.1217 20.4403 15.9998C20.4403 16.5829 20.3255 17.1603 20.1024 17.699C19.8792 18.2376 19.5522 18.7271 19.1399 19.1394C18.7276 19.5517 18.2381 19.8787 17.6994 20.1019C17.1608 20.325 16.5834 20.4398 16.0003 20.4398Z" fill="white"/>
</svg>
