<svg xmlns="http://www.w3.org/2000/svg" version="1.1" xmlns:xlink="http://www.w3.org/1999/xlink" xmlns:svgjs="http://svgjs.dev/svgjs" width="1440" height="560" preserveAspectRatio="none" viewBox="0 0 1440 560"><g mask="url(&quot;#SvgjsMask1838&quot;)" fill="none"><path d="M960 449.21000000000004 L953.84 536.19L996.3548600053164 532.1348600053163z" stroke="rgba(0, 0, 0, 0.76)" stroke-width="1.69" stroke-dasharray="3, 3"></path><path d="M861.48 496.08 L886.36 397.19L925.7825660240698 498.4975660240697z" stroke="rgba(202, 255, 187, 0.85)" stroke-width="1.26" stroke-dasharray="4, 4"></path><path d="M1011.19 238.75L1023.18 243.27 1021.4 255.95 1033.38 260.47 1031.6 273.15 1043.59 277.67 1041.81 290.35M1004.31 242.83L1016.3 247.35 1014.52 260.03 1026.5 264.55 1024.72 277.23 1036.71 281.75 1034.93 294.43M997.43 246.91L1009.42 251.43 1007.64 264.11 1019.62 268.63 1017.84 281.31 1029.83 285.83 1028.05 298.51" stroke="rgba(0, 0, 0, 0.76)" stroke-width="1" stroke-dasharray="3, 3"></path><circle r="68.71831243332008" cx="577.26" cy="276.43" fill="rgba(0, 0, 0, 0.76)"></circle><circle r="54.71391044913709" cx="1286.67" cy="111.41" fill="rgba(202, 255, 187, 0.85)"></circle><path d="M1234.43 18.76 L1108.38 164.24L1101.299872431819 21.394872431818825z" stroke="rgba(3, 123, 11, 0.75)" stroke-width="1" stroke-dasharray="3, 3"></path><rect width="250.8" height="250.8" clip-path="url(&quot;#SvgjsClipPath1839&quot;)" x="835.18" y="304.34" fill="url(&quot;#SvgjsPattern1840&quot;)" transform="rotate(62.23, 960.58, 429.74)"></rect><rect width="264" height="264" clip-path="url(&quot;#SvgjsClipPath1841&quot;)" x="1279.46" y="-29.91" fill="url(&quot;#SvgjsPattern1842&quot;)" transform="rotate(111.84, 1411.46, 102.09)"></rect><rect width="274.40000000000003" height="274.40000000000003" clip-path="url(&quot;#SvgjsClipPath1843&quot;)" x="-0.55" y="411.15" fill="url(&quot;#SvgjsPattern1844&quot;)" transform="rotate(339.73, 136.65, 548.35)"></rect><path d="M426.4 402.69 L467.88 410.22L472.1379233971234 381.4570766028766z" stroke="rgba(0, 0, 0, 0.76)" stroke-width="1.38" stroke-dasharray="3, 3"></path><rect width="108" height="108" clip-path="url(&quot;#SvgjsClipPath1845&quot;)" x="690.94" y="387" fill="url(&quot;#SvgjsPattern1846&quot;)" transform="rotate(77.63, 744.94, 441)"></rect><circle r="71.2015022703908" cx="659.63" cy="510.2" stroke="rgba(3, 123, 11, 0.75)" stroke-width="2.85"></circle></g><defs><mask id="SvgjsMask1838"><rect width="1440" height="560" fill="#ffffff"></rect></mask><pattern x="0" y="0" width="11.4" height="11.4" patternUnits="userSpaceOnUse" id="SvgjsPattern1840"><path d="M0 11.4L5.7 0L11.4 11.4" stroke="rgba(0, 0, 0, 0.76)" fill="none"></path></pattern><clipPath id="SvgjsClipPath1839"><circle r="62.7" cx="960.58" cy="429.74"></circle></clipPath><pattern x="0" y="0" width="6" height="6" patternUnits="userSpaceOnUse" id="SvgjsPattern1842"><path d="M3 1L3 5M1 3L5 3" stroke="rgba(135, 255, 101, 0.76)" fill="none" stroke-width="1.09"></path></pattern><clipPath id="SvgjsClipPath1841"><circle r="66" cx="1411.46" cy="102.09"></circle></clipPath><pattern x="0" y="0" width="6.86" height="6.86" patternUnits="userSpaceOnUse" id="SvgjsPattern1844"><path d="M0 6.86L3.43 0L6.86 6.86" stroke="rgba(0, 0, 0, 0.76)" fill="none"></path></pattern><clipPath id="SvgjsClipPath1843"><circle r="68.60000000000001" cx="136.65" cy="548.35"></circle></clipPath><pattern x="0" y="0" width="6" height="6" patternUnits="userSpaceOnUse" id="SvgjsPattern1846"><path d="M0 6L3 0L6 6" stroke="rgba(3, 123, 11, 0.75)" fill="none"></path></pattern><clipPath id="SvgjsClipPath1845"><circle r="27" cx="744.94" cy="441"></circle></clipPath></defs></svg>