<svg xmlns="http://www.w3.org/2000/svg" version="1.1" xmlns:xlink="http://www.w3.org/1999/xlink" xmlns:svgjs="http://svgjs.dev/svgjs" width="1440" height="560" preserveAspectRatio="none" viewBox="0 0 1440 560"><g mask="url(&quot;#SvgjsMask1008&quot;)" fill="none"><path d="M-100.96 410.4L-100.96 410.4" stroke="rgba(157, 223, 139, 1)" stroke-width="1.5"></path><path d="M-100.96 410.4L-65.01 515.64" stroke="rgba(157, 223, 139, 1)" stroke-width="1.5"></path><path d="M-100.96 410.4L46.3 378.97" stroke="rgba(157, 223, 139, 1)" stroke-width="1.5"></path><path d="M-100.96 410.4L53.56 544.58" stroke="rgba(157, 223, 139, 1)" stroke-width="1.5"></path><path d="M-100.96 410.4L55.78 673.75" stroke="rgba(157, 223, 139, 1)" stroke-width="1.5"></path><path d="M-100.96 410.4L255.31 355.24" stroke="rgba(157, 223, 139, 1)" stroke-width="1.5"></path><path d="M-100.96 410.4L255.84 532.82" stroke="rgba(157, 223, 139, 1)" stroke-width="1.5"></path><path d="M-65.01 515.64L-65.01 515.64" stroke="rgba(157, 223, 139, 1)" stroke-width="1.5"></path><path d="M-65.01 515.64L53.56 544.58" stroke="rgba(157, 223, 139, 1)" stroke-width="1.5"></path><path d="M46.3 378.97L46.3 378.97" stroke="rgba(157, 223, 139, 1)" stroke-width="1.5"></path><path d="M46.3 378.97L53.56 544.58" stroke="rgba(157, 223, 139, 1)" stroke-width="1.5"></path><path d="M53.56 544.58L53.56 544.58" stroke="rgba(157, 223, 139, 1)" stroke-width="1.5"></path><path d="M53.56 544.58L55.78 673.75" stroke="rgba(157, 223, 139, 1)" stroke-width="1.5"></path><path d="M53.56 544.58L255.84 532.82" stroke="rgba(157, 223, 139, 1)" stroke-width="1.5"></path><path d="M55.78 673.75L55.78 673.75" stroke="rgba(157, 223, 139, 1)" stroke-width="1.5"></path><path d="M55.78 673.75L-65.01 515.64" stroke="rgba(157, 223, 139, 1)" stroke-width="1.5"></path><path d="M55.78 673.75L255.84 532.82" stroke="rgba(157, 223, 139, 1)" stroke-width="1.5"></path><path d="M55.78 673.75L46.3 378.97" stroke="rgba(157, 223, 139, 1)" stroke-width="1.5"></path><path d="M255.31 355.24L255.31 355.24" stroke="rgba(157, 223, 139, 1)" stroke-width="1.5"></path><path d="M255.31 355.24L410.98 371.53" stroke="rgba(157, 223, 139, 1)" stroke-width="1.5"></path><path d="M255.31 355.24L255.84 532.82" stroke="rgba(157, 223, 139, 1)" stroke-width="1.5"></path><path d="M255.31 355.24L46.3 378.97" stroke="rgba(157, 223, 139, 1)" stroke-width="1.5"></path><path d="M255.31 355.24L351.18 558.04" stroke="rgba(157, 223, 139, 1)" stroke-width="1.5"></path><path d="M255.31 355.24L53.56 544.58" stroke="rgba(157, 223, 139, 1)" stroke-width="1.5"></path><path d="M255.31 355.24L535.73 400.45" stroke="rgba(157, 223, 139, 1)" stroke-width="1.5"></path><path d="M255.84 532.82L255.84 532.82" stroke="rgba(157, 223, 139, 1)" stroke-width="1.5"></path><path d="M255.84 532.82L351.18 558.04" stroke="rgba(157, 223, 139, 1)" stroke-width="1.5"></path><path d="M255.84 532.82L367.95 675.45" stroke="rgba(157, 223, 139, 1)" stroke-width="1.5"></path><path d="M255.84 532.82L410.98 371.53" stroke="rgba(157, 223, 139, 1)" stroke-width="1.5"></path><path d="M410.98 371.53L410.98 371.53" stroke="rgba(157, 223, 139, 1)" stroke-width="1.5"></path><path d="M410.98 371.53L535.73 400.45" stroke="rgba(157, 223, 139, 1)" stroke-width="1.5"></path><path d="M351.18 558.04L351.18 558.04" stroke="rgba(157, 223, 139, 1)" stroke-width="1.5"></path><path d="M351.18 558.04L367.95 675.45" stroke="rgba(157, 223, 139, 1)" stroke-width="1.5"></path><path d="M351.18 558.04L498.36 556.21" stroke="rgba(157, 223, 139, 1)" stroke-width="1.5"></path><path d="M367.95 675.45L367.95 675.45" stroke="rgba(157, 223, 139, 1)" stroke-width="1.5"></path><path d="M367.95 675.45L513.53 707.06" stroke="rgba(157, 223, 139, 1)" stroke-width="1.5"></path><path d="M367.95 675.45L498.36 556.21" stroke="rgba(157, 223, 139, 1)" stroke-width="1.5"></path><path d="M535.73 400.45L535.73 400.45" stroke="rgba(157, 223, 139, 1)" stroke-width="1.5"></path><path d="M535.73 400.45L681.43 345.44" stroke="rgba(157, 223, 139, 1)" stroke-width="1.5"></path><path d="M498.36 556.21L498.36 556.21" stroke="rgba(157, 223, 139, 1)" stroke-width="1.5"></path><path d="M498.36 556.21L513.53 707.06" stroke="rgba(157, 223, 139, 1)" stroke-width="1.5"></path><path d="M498.36 556.21L535.73 400.45" stroke="rgba(157, 223, 139, 1)" stroke-width="1.5"></path><path d="M498.36 556.21L661.27 555.62" stroke="rgba(157, 223, 139, 1)" stroke-width="1.5"></path><path d="M498.36 556.21L410.98 371.53" stroke="rgba(157, 223, 139, 1)" stroke-width="1.5"></path><path d="M513.53 707.06L513.53 707.06" stroke="rgba(157, 223, 139, 1)" stroke-width="1.5"></path><path d="M513.53 707.06L699.44 675.42" stroke="rgba(157, 223, 139, 1)" stroke-width="1.5"></path><path d="M513.53 707.06L661.27 555.62" stroke="rgba(157, 223, 139, 1)" stroke-width="1.5"></path><path d="M513.53 707.06L351.18 558.04" stroke="rgba(157, 223, 139, 1)" stroke-width="1.5"></path><path d="M513.53 707.06L535.73 400.45" stroke="rgba(157, 223, 139, 1)" stroke-width="1.5"></path><path d="M681.43 345.44L681.43 345.44" stroke="rgba(157, 223, 139, 1)" stroke-width="1.5"></path><path d="M681.43 345.44L827.01 372.27" stroke="rgba(157, 223, 139, 1)" stroke-width="1.5"></path><path d="M661.27 555.62L661.27 555.62" stroke="rgba(157, 223, 139, 1)" stroke-width="1.5"></path><path d="M661.27 555.62L699.44 675.42" stroke="rgba(157, 223, 139, 1)" stroke-width="1.5"></path><path d="M661.27 555.62L825.21 538.01" stroke="rgba(157, 223, 139, 1)" stroke-width="1.5"></path><path d="M661.27 555.62L535.73 400.45" stroke="rgba(157, 223, 139, 1)" stroke-width="1.5"></path><path d="M699.44 675.42L699.44 675.42" stroke="rgba(157, 223, 139, 1)" stroke-width="1.5"></path><path d="M699.44 675.42L823.92 671.78" stroke="rgba(157, 223, 139, 1)" stroke-width="1.5"></path><path d="M859.42 213.3L859.42 213.3" stroke="rgba(157, 223, 139, 1)" stroke-width="1.5"></path><path d="M859.42 213.3L982.92 251.02" stroke="rgba(157, 223, 139, 1)" stroke-width="1.5"></path><path d="M859.42 213.3L827.01 372.27" stroke="rgba(157, 223, 139, 1)" stroke-width="1.5"></path><path d="M859.42 213.3L974.05 374.69" stroke="rgba(157, 223, 139, 1)" stroke-width="1.5"></path><path d="M859.42 213.3L681.43 345.44" stroke="rgba(157, 223, 139, 1)" stroke-width="1.5"></path><path d="M827.01 372.27L827.01 372.27" stroke="rgba(157, 223, 139, 1)" stroke-width="1.5"></path><path d="M827.01 372.27L974.05 374.69" stroke="rgba(157, 223, 139, 1)" stroke-width="1.5"></path><path d="M827.01 372.27L825.21 538.01" stroke="rgba(157, 223, 139, 1)" stroke-width="1.5"></path><path d="M827.01 372.27L982.92 251.02" stroke="rgba(157, 223, 139, 1)" stroke-width="1.5"></path><path d="M825.21 538.01L825.21 538.01" stroke="rgba(157, 223, 139, 1)" stroke-width="1.5"></path><path d="M825.21 538.01L823.92 671.78" stroke="rgba(157, 223, 139, 1)" stroke-width="1.5"></path><path d="M825.21 538.01L958.15 562.22" stroke="rgba(157, 223, 139, 1)" stroke-width="1.5"></path><path d="M823.92 671.78L823.92 671.78" stroke="rgba(157, 223, 139, 1)" stroke-width="1.5"></path><path d="M941.71 -61.28L941.71 -61.28" stroke="rgba(157, 223, 139, 1)" stroke-width="1.5"></path><path d="M941.71 -61.28L1121.5 -88.06" stroke="rgba(157, 223, 139, 1)" stroke-width="1.5"></path><path d="M941.71 -61.28L1162.47 75.02" stroke="rgba(157, 223, 139, 1)" stroke-width="1.5"></path><path d="M941.71 -61.28L859.42 213.3" stroke="rgba(157, 223, 139, 1)" stroke-width="1.5"></path><path d="M941.71 -61.28L982.92 251.02" stroke="rgba(157, 223, 139, 1)" stroke-width="1.5"></path><path d="M982.92 251.02L982.92 251.02" stroke="rgba(157, 223, 139, 1)" stroke-width="1.5"></path><path d="M982.92 251.02L974.05 374.69" stroke="rgba(157, 223, 139, 1)" stroke-width="1.5"></path><path d="M982.92 251.02L1107.46 235.79" stroke="rgba(157, 223, 139, 1)" stroke-width="1.5"></path><path d="M982.92 251.02L1121.03 373.54" stroke="rgba(157, 223, 139, 1)" stroke-width="1.5"></path><path d="M982.92 251.02L1162.47 75.02" stroke="rgba(157, 223, 139, 1)" stroke-width="1.5"></path><path d="M974.05 374.69L974.05 374.69" stroke="rgba(157, 223, 139, 1)" stroke-width="1.5"></path><path d="M974.05 374.69L1121.03 373.54" stroke="rgba(157, 223, 139, 1)" stroke-width="1.5"></path><path d="M958.15 562.22L958.15 562.22" stroke="rgba(157, 223, 139, 1)" stroke-width="1.5"></path><path d="M958.15 562.22L982.01 711.61" stroke="rgba(157, 223, 139, 1)" stroke-width="1.5"></path><path d="M958.15 562.22L1100.73 503.19" stroke="rgba(157, 223, 139, 1)" stroke-width="1.5"></path><path d="M958.15 562.22L823.92 671.78" stroke="rgba(157, 223, 139, 1)" stroke-width="1.5"></path><path d="M958.15 562.22L974.05 374.69" stroke="rgba(157, 223, 139, 1)" stroke-width="1.5"></path><path d="M958.15 562.22L1161.02 656.87" stroke="rgba(157, 223, 139, 1)" stroke-width="1.5"></path><path d="M982.01 711.61L982.01 711.61" stroke="rgba(157, 223, 139, 1)" stroke-width="1.5"></path><path d="M982.01 711.61L823.92 671.78" stroke="rgba(157, 223, 139, 1)" stroke-width="1.5"></path><path d="M982.01 711.61L1161.02 656.87" stroke="rgba(157, 223, 139, 1)" stroke-width="1.5"></path><path d="M982.01 711.61L825.21 538.01" stroke="rgba(157, 223, 139, 1)" stroke-width="1.5"></path><path d="M1121.5 -88.06L1121.5 -88.06" stroke="rgba(157, 223, 139, 1)" stroke-width="1.5"></path><path d="M1121.5 -88.06L1162.47 75.02" stroke="rgba(157, 223, 139, 1)" stroke-width="1.5"></path><path d="M1121.5 -88.06L1303.17 -48.8" stroke="rgba(157, 223, 139, 1)" stroke-width="1.5"></path><path d="M1121.5 -88.06L1251.07 69.13" stroke="rgba(157, 223, 139, 1)" stroke-width="1.5"></path><path d="M1121.5 -88.06L1107.46 235.79" stroke="rgba(157, 223, 139, 1)" stroke-width="1.5"></path><path d="M1162.47 75.02L1162.47 75.02" stroke="rgba(157, 223, 139, 1)" stroke-width="1.5"></path><path d="M1162.47 75.02L1251.07 69.13" stroke="rgba(157, 223, 139, 1)" stroke-width="1.5"></path><path d="M1162.47 75.02L1107.46 235.79" stroke="rgba(157, 223, 139, 1)" stroke-width="1.5"></path><path d="M1162.47 75.02L1303.17 -48.8" stroke="rgba(157, 223, 139, 1)" stroke-width="1.5"></path><path d="M1162.47 75.02L1274.28 242.37" stroke="rgba(157, 223, 139, 1)" stroke-width="1.5"></path><path d="M1107.46 235.79L1107.46 235.79" stroke="rgba(157, 223, 139, 1)" stroke-width="1.5"></path><path d="M1107.46 235.79L1121.03 373.54" stroke="rgba(157, 223, 139, 1)" stroke-width="1.5"></path><path d="M1107.46 235.79L1274.28 242.37" stroke="rgba(157, 223, 139, 1)" stroke-width="1.5"></path><path d="M1121.03 373.54L1121.03 373.54" stroke="rgba(157, 223, 139, 1)" stroke-width="1.5"></path><path d="M1121.03 373.54L1100.73 503.19" stroke="rgba(157, 223, 139, 1)" stroke-width="1.5"></path><path d="M1121.03 373.54L1283.06 410.52" stroke="rgba(157, 223, 139, 1)" stroke-width="1.5"></path><path d="M1100.73 503.19L1100.73 503.19" stroke="rgba(157, 223, 139, 1)" stroke-width="1.5"></path><path d="M1100.73 503.19L1161.02 656.87" stroke="rgba(157, 223, 139, 1)" stroke-width="1.5"></path><path d="M1100.73 503.19L974.05 374.69" stroke="rgba(157, 223, 139, 1)" stroke-width="1.5"></path><path d="M1161.02 656.87L1161.02 656.87" stroke="rgba(157, 223, 139, 1)" stroke-width="1.5"></path><path d="M1161.02 656.87L1270.75 708.37" stroke="rgba(157, 223, 139, 1)" stroke-width="1.5"></path><path d="M1161.02 656.87L1293.75 541.7" stroke="rgba(157, 223, 139, 1)" stroke-width="1.5"></path><path d="M1303.17 -48.8L1303.17 -48.8" stroke="rgba(157, 223, 139, 1)" stroke-width="1.5"></path><path d="M1303.17 -48.8L1251.07 69.13" stroke="rgba(157, 223, 139, 1)" stroke-width="1.5"></path><path d="M1303.17 -48.8L1453.4 -72.04" stroke="rgba(157, 223, 139, 1)" stroke-width="1.5"></path><path d="M1303.17 -48.8L1425.17 66.37" stroke="rgba(157, 223, 139, 1)" stroke-width="1.5"></path><path d="M1251.07 69.13L1251.07 69.13" stroke="rgba(157, 223, 139, 1)" stroke-width="1.5"></path><path d="M1251.07 69.13L1425.17 66.37" stroke="rgba(157, 223, 139, 1)" stroke-width="1.5"></path><path d="M1251.07 69.13L1274.28 242.37" stroke="rgba(157, 223, 139, 1)" stroke-width="1.5"></path><path d="M1274.28 242.37L1274.28 242.37" stroke="rgba(157, 223, 139, 1)" stroke-width="1.5"></path><path d="M1274.28 242.37L1283.06 410.52" stroke="rgba(157, 223, 139, 1)" stroke-width="1.5"></path><path d="M1283.06 410.52L1283.06 410.52" stroke="rgba(157, 223, 139, 1)" stroke-width="1.5"></path><path d="M1283.06 410.52L1293.75 541.7" stroke="rgba(157, 223, 139, 1)" stroke-width="1.5"></path><path d="M1283.06 410.52L1397.85 498.94" stroke="rgba(157, 223, 139, 1)" stroke-width="1.5"></path><path d="M1283.06 410.52L1454.89 351.52" stroke="rgba(157, 223, 139, 1)" stroke-width="1.5"></path><path d="M1283.06 410.52L1100.73 503.19" stroke="rgba(157, 223, 139, 1)" stroke-width="1.5"></path><path d="M1293.75 541.7L1293.75 541.7" stroke="rgba(157, 223, 139, 1)" stroke-width="1.5"></path><path d="M1293.75 541.7L1397.85 498.94" stroke="rgba(157, 223, 139, 1)" stroke-width="1.5"></path><path d="M1293.75 541.7L1270.75 708.37" stroke="rgba(157, 223, 139, 1)" stroke-width="1.5"></path><path d="M1293.75 541.7L1100.73 503.19" stroke="rgba(157, 223, 139, 1)" stroke-width="1.5"></path><path d="M1293.75 541.7L1450.06 668.57" stroke="rgba(157, 223, 139, 1)" stroke-width="1.5"></path><path d="M1270.75 708.37L1270.75 708.37" stroke="rgba(157, 223, 139, 1)" stroke-width="1.5"></path><path d="M1270.75 708.37L1450.06 668.57" stroke="rgba(157, 223, 139, 1)" stroke-width="1.5"></path><path d="M1270.75 708.37L1397.85 498.94" stroke="rgba(157, 223, 139, 1)" stroke-width="1.5"></path><path d="M1270.75 708.37L1100.73 503.19" stroke="rgba(157, 223, 139, 1)" stroke-width="1.5"></path><path d="M1270.75 708.37L982.01 711.61" stroke="rgba(157, 223, 139, 1)" stroke-width="1.5"></path><path d="M1453.4 -72.04L1453.4 -72.04" stroke="rgba(157, 223, 139, 1)" stroke-width="1.5"></path><path d="M1453.4 -72.04L1425.17 66.37" stroke="rgba(157, 223, 139, 1)" stroke-width="1.5"></path><path d="M1453.4 -72.04L1601.52 -86.41" stroke="rgba(157, 223, 139, 1)" stroke-width="1.5"></path><path d="M1453.4 -72.04L1559.88 40.53" stroke="rgba(157, 223, 139, 1)" stroke-width="1.5"></path><path d="M1453.4 -72.04L1251.07 69.13" stroke="rgba(157, 223, 139, 1)" stroke-width="1.5"></path><path d="M1453.4 -72.04L1560.91 188.1" stroke="rgba(157, 223, 139, 1)" stroke-width="1.5"></path><path d="M1425.17 66.37L1425.17 66.37" stroke="rgba(157, 223, 139, 1)" stroke-width="1.5"></path><path d="M1425.17 66.37L1559.88 40.53" stroke="rgba(157, 223, 139, 1)" stroke-width="1.5"></path><path d="M1454.89 351.52L1454.89 351.52" stroke="rgba(157, 223, 139, 1)" stroke-width="1.5"></path><path d="M1454.89 351.52L1587.56 385.51" stroke="rgba(157, 223, 139, 1)" stroke-width="1.5"></path><path d="M1454.89 351.52L1397.85 498.94" stroke="rgba(157, 223, 139, 1)" stroke-width="1.5"></path><path d="M1397.85 498.94L1397.85 498.94" stroke="rgba(157, 223, 139, 1)" stroke-width="1.5"></path><path d="M1450.06 668.57L1450.06 668.57" stroke="rgba(157, 223, 139, 1)" stroke-width="1.5"></path><path d="M1450.06 668.57L1397.85 498.94" stroke="rgba(157, 223, 139, 1)" stroke-width="1.5"></path><path d="M1450.06 668.57L1575.35 529.74" stroke="rgba(157, 223, 139, 1)" stroke-width="1.5"></path><path d="M1450.06 668.57L1161.02 656.87" stroke="rgba(157, 223, 139, 1)" stroke-width="1.5"></path><path d="M1450.06 668.57L1283.06 410.52" stroke="rgba(157, 223, 139, 1)" stroke-width="1.5"></path><path d="M1601.52 -86.41L1601.52 -86.41" stroke="rgba(157, 223, 139, 1)" stroke-width="1.5"></path><path d="M1601.52 -86.41L1559.88 40.53" stroke="rgba(157, 223, 139, 1)" stroke-width="1.5"></path><path d="M1601.52 -86.41L1425.17 66.37" stroke="rgba(157, 223, 139, 1)" stroke-width="1.5"></path><path d="M1601.52 -86.41L1560.91 188.1" stroke="rgba(157, 223, 139, 1)" stroke-width="1.5"></path><path d="M1559.88 40.53L1559.88 40.53" stroke="rgba(157, 223, 139, 1)" stroke-width="1.5"></path><path d="M1559.88 40.53L1560.91 188.1" stroke="rgba(157, 223, 139, 1)" stroke-width="1.5"></path><path d="M1560.91 188.1L1560.91 188.1" stroke="rgba(157, 223, 139, 1)" stroke-width="1.5"></path><path d="M1560.91 188.1L1425.17 66.37" stroke="rgba(157, 223, 139, 1)" stroke-width="1.5"></path><path d="M1587.56 385.51L1587.56 385.51" stroke="rgba(157, 223, 139, 1)" stroke-width="1.5"></path><path d="M1587.56 385.51L1575.35 529.74" stroke="rgba(157, 223, 139, 1)" stroke-width="1.5"></path><path d="M1575.35 529.74L1575.35 529.74" stroke="rgba(157, 223, 139, 1)" stroke-width="1.5"></path><path d="M1575.35 529.74L1397.85 498.94" stroke="rgba(157, 223, 139, 1)" stroke-width="1.5"></path><circle r="5" cx="-100.96" cy="410.4" fill="rgba(157, 223, 139, 1)"></circle><circle r="5" cx="-65.01" cy="515.64" fill="rgba(157, 223, 139, 1)"></circle><circle r="5" cx="46.3" cy="378.97" fill="rgba(157, 223, 139, 1)"></circle><circle r="5" cx="53.56" cy="544.58" fill="rgba(157, 223, 139, 1)"></circle><circle r="5" cx="55.78" cy="673.75" fill="rgba(157, 223, 139, 1)"></circle><circle r="5" cx="255.31" cy="355.24" fill="rgba(157, 223, 139, 1)"></circle><circle r="5" cx="255.84" cy="532.82" fill="rgba(157, 223, 139, 1)"></circle><circle r="5" cx="410.98" cy="371.53" fill="rgba(157, 223, 139, 1)"></circle><circle r="5" cx="351.18" cy="558.04" fill="rgba(157, 223, 139, 1)"></circle><circle r="5" cx="367.95" cy="675.45" fill="rgba(157, 223, 139, 1)"></circle><circle r="5" cx="535.73" cy="400.45" fill="rgba(157, 223, 139, 1)"></circle><circle r="5" cx="498.36" cy="556.21" fill="rgba(157, 223, 139, 1)"></circle><circle r="5" cx="513.53" cy="707.06" fill="rgba(157, 223, 139, 1)"></circle><circle r="5" cx="681.43" cy="345.44" fill="rgba(157, 223, 139, 1)"></circle><circle r="5" cx="661.27" cy="555.62" fill="rgba(157, 223, 139, 1)"></circle><circle r="5" cx="699.44" cy="675.42" fill="rgba(157, 223, 139, 1)"></circle><circle r="5" cx="859.42" cy="213.3" fill="rgba(157, 223, 139, 1)"></circle><circle r="5" cx="827.01" cy="372.27" fill="rgba(157, 223, 139, 1)"></circle><circle r="5" cx="825.21" cy="538.01" fill="rgba(157, 223, 139, 1)"></circle><circle r="5" cx="823.92" cy="671.78" fill="rgba(157, 223, 139, 1)"></circle><circle r="5" cx="941.71" cy="-61.28" fill="rgba(157, 223, 139, 1)"></circle><circle r="5" cx="982.92" cy="251.02" fill="rgba(157, 223, 139, 1)"></circle><circle r="5" cx="974.05" cy="374.69" fill="rgba(157, 223, 139, 1)"></circle><circle r="5" cx="958.15" cy="562.22" fill="rgba(157, 223, 139, 1)"></circle><circle r="5" cx="982.01" cy="711.61" fill="rgba(157, 223, 139, 1)"></circle><circle r="5" cx="1121.5" cy="-88.06" fill="rgba(157, 223, 139, 1)"></circle><circle r="5" cx="1162.47" cy="75.02" fill="rgba(157, 223, 139, 1)"></circle><circle r="5" cx="1107.46" cy="235.79" fill="rgba(157, 223, 139, 1)"></circle><circle r="5" cx="1121.03" cy="373.54" fill="rgba(157, 223, 139, 1)"></circle><circle r="5" cx="1100.73" cy="503.19" fill="rgba(157, 223, 139, 1)"></circle><circle r="5" cx="1161.02" cy="656.87" fill="rgba(157, 223, 139, 1)"></circle><circle r="5" cx="1303.17" cy="-48.8" fill="rgba(157, 223, 139, 1)"></circle><circle r="5" cx="1251.07" cy="69.13" fill="rgba(157, 223, 139, 1)"></circle><circle r="5" cx="1274.28" cy="242.37" fill="rgba(157, 223, 139, 1)"></circle><circle r="5" cx="1283.06" cy="410.52" fill="rgba(157, 223, 139, 1)"></circle><circle r="5" cx="1293.75" cy="541.7" fill="rgba(157, 223, 139, 1)"></circle><circle r="5" cx="1270.75" cy="708.37" fill="rgba(157, 223, 139, 1)"></circle><circle r="5" cx="1453.4" cy="-72.04" fill="rgba(157, 223, 139, 1)"></circle><circle r="5" cx="1425.17" cy="66.37" fill="rgba(157, 223, 139, 1)"></circle><circle r="5" cx="1454.89" cy="351.52" fill="rgba(157, 223, 139, 1)"></circle><circle r="5" cx="1397.85" cy="498.94" fill="rgba(157, 223, 139, 1)"></circle><circle r="5" cx="1450.06" cy="668.57" fill="rgba(157, 223, 139, 1)"></circle><circle r="5" cx="1601.52" cy="-86.41" fill="rgba(157, 223, 139, 1)"></circle><circle r="5" cx="1559.88" cy="40.53" fill="rgba(157, 223, 139, 1)"></circle><circle r="5" cx="1560.91" cy="188.1" fill="rgba(157, 223, 139, 1)"></circle><circle r="5" cx="1587.56" cy="385.51" fill="rgba(157, 223, 139, 1)"></circle><circle r="5" cx="1575.35" cy="529.74" fill="rgba(157, 223, 139, 1)"></circle><path d="M687.98 552.73L687.98 552.73" stroke="hsl(106.80000000000001, 100%, 90.7%)" stroke-width="1.5"></path><path d="M687.98 552.73L668.47 658.61" stroke="hsl(106.80000000000001, 100%, 90.7%)" stroke-width="1.5"></path><path d="M687.98 552.73L828.27 551.02" stroke="hsl(106.80000000000001, 100%, 90.7%)" stroke-width="1.5"></path><path d="M1298.5 51.81L1298.5 51.81" stroke="hsl(106.80000000000001, 100%, 90.7%)" stroke-width="1.5"></path><path d="M1298.5 51.81L1395.82 48.02" stroke="hsl(106.80000000000001, 100%, 90.7%)" stroke-width="1.5"></path><path d="M1298.5 51.81L1294.81 202.22" stroke="hsl(106.80000000000001, 100%, 90.7%)" stroke-width="1.5"></path><path d="M1298.5 51.81L1298.17 -102.46" stroke="hsl(106.80000000000001, 100%, 90.7%)" stroke-width="1.5"></path><path d="M1298.5 51.81L1392 227.32" stroke="hsl(106.80000000000001, 100%, 90.7%)" stroke-width="1.5"></path><path d="M1398.16 536.23L1398.16 536.23" stroke="hsl(106.80000000000001, 100%, 90.7%)" stroke-width="1.5"></path><path d="M1398.16 536.23L1545.44 490.29" stroke="hsl(106.80000000000001, 100%, 90.7%)" stroke-width="1.5"></path><path d="M1398.16 536.23L1447.73 703.96" stroke="hsl(106.80000000000001, 100%, 90.7%)" stroke-width="1.5"></path><path d="M1398.16 536.23L1448.25 358.91" stroke="hsl(106.80000000000001, 100%, 90.7%)" stroke-width="1.5"></path><path d="M1398.16 536.23L1294.87 380.44" stroke="hsl(106.80000000000001, 100%, 90.7%)" stroke-width="1.5"></path><path d="M1553.09 688.42L1553.09 688.42" stroke="hsl(106.80000000000001, 100%, 90.7%)" stroke-width="1.5"></path><path d="M1553.09 688.42L1447.73 703.96" stroke="hsl(106.80000000000001, 100%, 90.7%)" stroke-width="1.5"></path><path d="M1553.09 688.42L1545.44 490.29" stroke="hsl(106.80000000000001, 100%, 90.7%)" stroke-width="1.5"></path><path d="M1553.09 688.42L1398.16 536.23" stroke="hsl(106.80000000000001, 100%, 90.7%)" stroke-width="1.5"></path><path d="M1553.09 688.42L1603.39 398.37" stroke="hsl(106.80000000000001, 100%, 90.7%)" stroke-width="1.5"></path><path d="M-66.99 646.71L-66.99 646.71" stroke="hsl(106.80000000000001, 100%, 90.7%)" stroke-width="1.5"></path><path d="M-66.99 646.71L112.25 682.31" stroke="hsl(106.80000000000001, 100%, 90.7%)" stroke-width="1.5"></path><path d="M-66.99 646.71L52.41 487.93" stroke="hsl(106.80000000000001, 100%, 90.7%)" stroke-width="1.5"></path><path d="M52.41 487.93L52.41 487.93" stroke="hsl(106.80000000000001, 100%, 90.7%)" stroke-width="1.5"></path><path d="M52.41 487.93L243.71 540.41" stroke="hsl(106.80000000000001, 100%, 90.7%)" stroke-width="1.5"></path><path d="M112.25 682.31L112.25 682.31" stroke="hsl(106.80000000000001, 100%, 90.7%)" stroke-width="1.5"></path><path d="M112.25 682.31L228.63 699.95" stroke="hsl(106.80000000000001, 100%, 90.7%)" stroke-width="1.5"></path><path d="M243.71 540.41L243.71 540.41" stroke="hsl(106.80000000000001, 100%, 90.7%)" stroke-width="1.5"></path><path d="M243.71 540.41L389.85 550.69" stroke="hsl(106.80000000000001, 100%, 90.7%)" stroke-width="1.5"></path><path d="M243.71 540.41L228.63 699.95" stroke="hsl(106.80000000000001, 100%, 90.7%)" stroke-width="1.5"></path><path d="M243.71 540.41L112.25 682.31" stroke="hsl(106.80000000000001, 100%, 90.7%)" stroke-width="1.5"></path><path d="M228.63 699.95L228.63 699.95" stroke="hsl(106.80000000000001, 100%, 90.7%)" stroke-width="1.5"></path><path d="M389.85 550.69L389.85 550.69" stroke="hsl(106.80000000000001, 100%, 90.7%)" stroke-width="1.5"></path><path d="M389.85 550.69L490.85 639.21" stroke="hsl(106.80000000000001, 100%, 90.7%)" stroke-width="1.5"></path><path d="M396.55 702.25L396.55 702.25" stroke="hsl(106.80000000000001, 100%, 90.7%)" stroke-width="1.5"></path><path d="M396.55 702.25L490.85 639.21" stroke="hsl(106.80000000000001, 100%, 90.7%)" stroke-width="1.5"></path><path d="M396.55 702.25L389.85 550.69" stroke="hsl(106.80000000000001, 100%, 90.7%)" stroke-width="1.5"></path><path d="M536.55 501.54L536.55 501.54" stroke="hsl(106.80000000000001, 100%, 90.7%)" stroke-width="1.5"></path><path d="M536.55 501.54L490.85 639.21" stroke="hsl(106.80000000000001, 100%, 90.7%)" stroke-width="1.5"></path><path d="M536.55 501.54L389.85 550.69" stroke="hsl(106.80000000000001, 100%, 90.7%)" stroke-width="1.5"></path><path d="M536.55 501.54L687.98 552.73" stroke="hsl(106.80000000000001, 100%, 90.7%)" stroke-width="1.5"></path><path d="M536.55 501.54L668.47 658.61" stroke="hsl(106.80000000000001, 100%, 90.7%)" stroke-width="1.5"></path><path d="M536.55 501.54L396.55 702.25" stroke="hsl(106.80000000000001, 100%, 90.7%)" stroke-width="1.5"></path><path d="M490.85 639.21L490.85 639.21" stroke="hsl(106.80000000000001, 100%, 90.7%)" stroke-width="1.5"></path><path d="M668.47 658.61L668.47 658.61" stroke="hsl(106.80000000000001, 100%, 90.7%)" stroke-width="1.5"></path><path d="M668.47 658.61L490.85 639.21" stroke="hsl(106.80000000000001, 100%, 90.7%)" stroke-width="1.5"></path><path d="M668.47 658.61L828.27 551.02" stroke="hsl(106.80000000000001, 100%, 90.7%)" stroke-width="1.5"></path><path d="M849.24 373.21L849.24 373.21" stroke="hsl(106.80000000000001, 100%, 90.7%)" stroke-width="1.5"></path><path d="M849.24 373.21L948.28 364.39" stroke="hsl(106.80000000000001, 100%, 90.7%)" stroke-width="1.5"></path><path d="M849.24 373.21L828.27 551.02" stroke="hsl(106.80000000000001, 100%, 90.7%)" stroke-width="1.5"></path><path d="M849.24 373.21L949.11 523.67" stroke="hsl(106.80000000000001, 100%, 90.7%)" stroke-width="1.5"></path><path d="M849.24 373.21L1001.09 222.36" stroke="hsl(106.80000000000001, 100%, 90.7%)" stroke-width="1.5"></path><path d="M849.24 373.21L687.98 552.73" stroke="hsl(106.80000000000001, 100%, 90.7%)" stroke-width="1.5"></path><path d="M849.24 373.21L1131.34 370.26" stroke="hsl(106.80000000000001, 100%, 90.7%)" stroke-width="1.5"></path><path d="M828.27 551.02L828.27 551.02" stroke="hsl(106.80000000000001, 100%, 90.7%)" stroke-width="1.5"></path><path d="M828.27 551.02L949.11 523.67" stroke="hsl(106.80000000000001, 100%, 90.7%)" stroke-width="1.5"></path><path d="M828.27 551.02L977.57 641.93" stroke="hsl(106.80000000000001, 100%, 90.7%)" stroke-width="1.5"></path><path d="M1001.09 222.36L1001.09 222.36" stroke="hsl(106.80000000000001, 100%, 90.7%)" stroke-width="1.5"></path><path d="M1001.09 222.36L1117.17 235.1" stroke="hsl(106.80000000000001, 100%, 90.7%)" stroke-width="1.5"></path><path d="M1001.09 222.36L948.28 364.39" stroke="hsl(106.80000000000001, 100%, 90.7%)" stroke-width="1.5"></path><path d="M1001.09 222.36L1131.34 370.26" stroke="hsl(106.80000000000001, 100%, 90.7%)" stroke-width="1.5"></path><path d="M948.28 364.39L948.28 364.39" stroke="hsl(106.80000000000001, 100%, 90.7%)" stroke-width="1.5"></path><path d="M948.28 364.39L949.11 523.67" stroke="hsl(106.80000000000001, 100%, 90.7%)" stroke-width="1.5"></path><path d="M948.28 364.39L1131.34 370.26" stroke="hsl(106.80000000000001, 100%, 90.7%)" stroke-width="1.5"></path><path d="M948.28 364.39L1117.17 235.1" stroke="hsl(106.80000000000001, 100%, 90.7%)" stroke-width="1.5"></path><path d="M949.11 523.67L949.11 523.67" stroke="hsl(106.80000000000001, 100%, 90.7%)" stroke-width="1.5"></path><path d="M949.11 523.67L977.57 641.93" stroke="hsl(106.80000000000001, 100%, 90.7%)" stroke-width="1.5"></path><path d="M977.57 641.93L977.57 641.93" stroke="hsl(106.80000000000001, 100%, 90.7%)" stroke-width="1.5"></path><path d="M977.57 641.93L1149.4 499.36" stroke="hsl(106.80000000000001, 100%, 90.7%)" stroke-width="1.5"></path><path d="M977.57 641.93L1244.02 700.71" stroke="hsl(106.80000000000001, 100%, 90.7%)" stroke-width="1.5"></path><path d="M1117.17 235.1L1117.17 235.1" stroke="hsl(106.80000000000001, 100%, 90.7%)" stroke-width="1.5"></path><path d="M1131.34 370.26L1131.34 370.26" stroke="hsl(106.80000000000001, 100%, 90.7%)" stroke-width="1.5"></path><path d="M1131.34 370.26L1149.4 499.36" stroke="hsl(106.80000000000001, 100%, 90.7%)" stroke-width="1.5"></path><path d="M1131.34 370.26L1117.17 235.1" stroke="hsl(106.80000000000001, 100%, 90.7%)" stroke-width="1.5"></path><path d="M1131.34 370.26L1294.87 380.44" stroke="hsl(106.80000000000001, 100%, 90.7%)" stroke-width="1.5"></path><path d="M1149.4 499.36L1149.4 499.36" stroke="hsl(106.80000000000001, 100%, 90.7%)" stroke-width="1.5"></path><path d="M1149.4 499.36L1294.87 380.44" stroke="hsl(106.80000000000001, 100%, 90.7%)" stroke-width="1.5"></path><path d="M1149.4 499.36L949.11 523.67" stroke="hsl(106.80000000000001, 100%, 90.7%)" stroke-width="1.5"></path><path d="M1149.4 499.36L1244.02 700.71" stroke="hsl(106.80000000000001, 100%, 90.7%)" stroke-width="1.5"></path><path d="M1298.17 -102.46L1298.17 -102.46" stroke="hsl(106.80000000000001, 100%, 90.7%)" stroke-width="1.5"></path><path d="M1298.17 -102.46L1449.46 -87.59" stroke="hsl(106.80000000000001, 100%, 90.7%)" stroke-width="1.5"></path><path d="M1298.17 -102.46L1395.82 48.02" stroke="hsl(106.80000000000001, 100%, 90.7%)" stroke-width="1.5"></path><path d="M1298.17 -102.46L1294.81 202.22" stroke="hsl(106.80000000000001, 100%, 90.7%)" stroke-width="1.5"></path><path d="M1294.81 202.22L1294.81 202.22" stroke="hsl(106.80000000000001, 100%, 90.7%)" stroke-width="1.5"></path><path d="M1294.81 202.22L1392 227.32" stroke="hsl(106.80000000000001, 100%, 90.7%)" stroke-width="1.5"></path><path d="M1294.81 202.22L1294.87 380.44" stroke="hsl(106.80000000000001, 100%, 90.7%)" stroke-width="1.5"></path><path d="M1294.81 202.22L1117.17 235.1" stroke="hsl(106.80000000000001, 100%, 90.7%)" stroke-width="1.5"></path><path d="M1294.87 380.44L1294.87 380.44" stroke="hsl(106.80000000000001, 100%, 90.7%)" stroke-width="1.5"></path><path d="M1294.87 380.44L1448.25 358.91" stroke="hsl(106.80000000000001, 100%, 90.7%)" stroke-width="1.5"></path><path d="M1244.02 700.71L1244.02 700.71" stroke="hsl(106.80000000000001, 100%, 90.7%)" stroke-width="1.5"></path><path d="M1244.02 700.71L1447.73 703.96" stroke="hsl(106.80000000000001, 100%, 90.7%)" stroke-width="1.5"></path><path d="M1244.02 700.71L1398.16 536.23" stroke="hsl(106.80000000000001, 100%, 90.7%)" stroke-width="1.5"></path><path d="M1244.02 700.71L1553.09 688.42" stroke="hsl(106.80000000000001, 100%, 90.7%)" stroke-width="1.5"></path><path d="M1449.46 -87.59L1449.46 -87.59" stroke="hsl(106.80000000000001, 100%, 90.7%)" stroke-width="1.5"></path><path d="M1449.46 -87.59L1395.82 48.02" stroke="hsl(106.80000000000001, 100%, 90.7%)" stroke-width="1.5"></path><path d="M1449.46 -87.59L1576.31 39.16" stroke="hsl(106.80000000000001, 100%, 90.7%)" stroke-width="1.5"></path><path d="M1449.46 -87.59L1298.5 51.81" stroke="hsl(106.80000000000001, 100%, 90.7%)" stroke-width="1.5"></path><path d="M1449.46 -87.59L1392 227.32" stroke="hsl(106.80000000000001, 100%, 90.7%)" stroke-width="1.5"></path><path d="M1395.82 48.02L1395.82 48.02" stroke="hsl(106.80000000000001, 100%, 90.7%)" stroke-width="1.5"></path><path d="M1395.82 48.02L1392 227.32" stroke="hsl(106.80000000000001, 100%, 90.7%)" stroke-width="1.5"></path><path d="M1392 227.32L1392 227.32" stroke="hsl(106.80000000000001, 100%, 90.7%)" stroke-width="1.5"></path><path d="M1392 227.32L1448.25 358.91" stroke="hsl(106.80000000000001, 100%, 90.7%)" stroke-width="1.5"></path><path d="M1392 227.32L1541.4 235.2" stroke="hsl(106.80000000000001, 100%, 90.7%)" stroke-width="1.5"></path><path d="M1392 227.32L1294.87 380.44" stroke="hsl(106.80000000000001, 100%, 90.7%)" stroke-width="1.5"></path><path d="M1448.25 358.91L1448.25 358.91" stroke="hsl(106.80000000000001, 100%, 90.7%)" stroke-width="1.5"></path><path d="M1448.25 358.91L1541.4 235.2" stroke="hsl(106.80000000000001, 100%, 90.7%)" stroke-width="1.5"></path><path d="M1448.25 358.91L1603.39 398.37" stroke="hsl(106.80000000000001, 100%, 90.7%)" stroke-width="1.5"></path><path d="M1447.73 703.96L1447.73 703.96" stroke="hsl(106.80000000000001, 100%, 90.7%)" stroke-width="1.5"></path><path d="M1576.31 39.16L1576.31 39.16" stroke="hsl(106.80000000000001, 100%, 90.7%)" stroke-width="1.5"></path><path d="M1576.31 39.16L1395.82 48.02" stroke="hsl(106.80000000000001, 100%, 90.7%)" stroke-width="1.5"></path><path d="M1576.31 39.16L1541.4 235.2" stroke="hsl(106.80000000000001, 100%, 90.7%)" stroke-width="1.5"></path><path d="M1576.31 39.16L1392 227.32" stroke="hsl(106.80000000000001, 100%, 90.7%)" stroke-width="1.5"></path><path d="M1576.31 39.16L1298.5 51.81" stroke="hsl(106.80000000000001, 100%, 90.7%)" stroke-width="1.5"></path><path d="M1576.31 39.16L1298.17 -102.46" stroke="hsl(106.80000000000001, 100%, 90.7%)" stroke-width="1.5"></path><path d="M1541.4 235.2L1541.4 235.2" stroke="hsl(106.80000000000001, 100%, 90.7%)" stroke-width="1.5"></path><path d="M1541.4 235.2L1603.39 398.37" stroke="hsl(106.80000000000001, 100%, 90.7%)" stroke-width="1.5"></path><path d="M1603.39 398.37L1603.39 398.37" stroke="hsl(106.80000000000001, 100%, 90.7%)" stroke-width="1.5"></path><path d="M1603.39 398.37L1545.44 490.29" stroke="hsl(106.80000000000001, 100%, 90.7%)" stroke-width="1.5"></path><path d="M1545.44 490.29L1545.44 490.29" stroke="hsl(106.80000000000001, 100%, 90.7%)" stroke-width="1.5"></path><path d="M1545.44 490.29L1448.25 358.91" stroke="hsl(106.80000000000001, 100%, 90.7%)" stroke-width="1.5"></path><circle r="25" cx="687.98" cy="552.73" fill="url(&quot;#SvgjsRadialGradient1009&quot;)"></circle><circle r="25" cx="1298.5" cy="51.81" fill="url(&quot;#SvgjsRadialGradient1009&quot;)"></circle><circle r="25" cx="1398.16" cy="536.23" fill="url(&quot;#SvgjsRadialGradient1009&quot;)"></circle><circle r="25" cx="1553.09" cy="688.42" fill="url(&quot;#SvgjsRadialGradient1009&quot;)"></circle><circle r="5" cx="-66.99" cy="646.71" fill="#c3ffb2"></circle><circle r="5" cx="52.41" cy="487.93" fill="#c3ffb2"></circle><circle r="5" cx="112.25" cy="682.31" fill="#c3ffb2"></circle><circle r="5" cx="243.71" cy="540.41" fill="#c3ffb2"></circle><circle r="5" cx="228.63" cy="699.95" fill="#c3ffb2"></circle><circle r="5" cx="389.85" cy="550.69" fill="#c3ffb2"></circle><circle r="5" cx="396.55" cy="702.25" fill="#c3ffb2"></circle><circle r="5" cx="536.55" cy="501.54" fill="#c3ffb2"></circle><circle r="5" cx="490.85" cy="639.21" fill="#c3ffb2"></circle><circle r="5" cx="668.47" cy="658.61" fill="#c3ffb2"></circle><circle r="5" cx="849.24" cy="373.21" fill="#c3ffb2"></circle><circle r="5" cx="828.27" cy="551.02" fill="#c3ffb2"></circle><circle r="5" cx="1001.09" cy="222.36" fill="#c3ffb2"></circle><circle r="5" cx="948.28" cy="364.39" fill="#c3ffb2"></circle><circle r="5" cx="949.11" cy="523.67" fill="#c3ffb2"></circle><circle r="5" cx="977.57" cy="641.93" fill="#c3ffb2"></circle><circle r="5" cx="1117.17" cy="235.1" fill="#c3ffb2"></circle><circle r="5" cx="1131.34" cy="370.26" fill="#c3ffb2"></circle><circle r="5" cx="1149.4" cy="499.36" fill="#c3ffb2"></circle><circle r="5" cx="1298.17" cy="-102.46" fill="#c3ffb2"></circle><circle r="5" cx="1294.81" cy="202.22" fill="#c3ffb2"></circle><circle r="5" cx="1294.87" cy="380.44" fill="#c3ffb2"></circle><circle r="5" cx="1244.02" cy="700.71" fill="#c3ffb2"></circle><circle r="5" cx="1449.46" cy="-87.59" fill="#c3ffb2"></circle><circle r="5" cx="1395.82" cy="48.02" fill="#c3ffb2"></circle><circle r="5" cx="1392" cy="227.32" fill="#c3ffb2"></circle><circle r="5" cx="1448.25" cy="358.91" fill="#c3ffb2"></circle><circle r="5" cx="1447.73" cy="703.96" fill="#c3ffb2"></circle><circle r="5" cx="1576.31" cy="39.16" fill="#c3ffb2"></circle><circle r="5" cx="1541.4" cy="235.2" fill="#c3ffb2"></circle><circle r="5" cx="1603.39" cy="398.37" fill="#c3ffb2"></circle><circle r="5" cx="1545.44" cy="490.29" fill="#c3ffb2"></circle></g><defs><mask id="SvgjsMask1008"><rect width="1440" height="560" fill="#ffffff"></rect></mask><radialGradient id="SvgjsRadialGradient1009"><stop stop-color="#ffffff" offset="0.1"></stop><stop stop-color="rgba(135, 255, 101, 1)" offset="0.2"></stop><stop stop-color="rgba(135, 255, 101, 0)" offset="1"></stop></radialGradient></defs></svg>