<svg xmlns="http://www.w3.org/2000/svg" version="1.1" xmlns:xlink="http://www.w3.org/1999/xlink" xmlns:svgjs="http://svgjs.dev/svgjs" width="1440" height="560" preserveAspectRatio="none" viewBox="0 0 1440 560"><g mask="url(&quot;#SvgjsMask1006&quot;)" fill="none"><path d="M -224.66074977649637,233 C -128.66,282.4 63.34,499.8 255.33925022350363,480 C 447.34,460.2 543.34,146.8 735.3392502235037,134 C 927.34,121.2 1023.34,420.2 1215.3392502235035,416 C 1407.34,411.8 1650.41,116.4 1695.3392502235035,113 C 1740.27,109.6 1491.07,341.8 1440,399" stroke="rgba(135, 255, 101, 0.78)" stroke-width="2"></path><path d="M -763.5960665178372,400 C -667.6,353.4 -475.6,185.8 -283.5960665178373,167 C -91.6,148.2 4.4,323.6 196.4039334821627,306 C 388.4,288.4 484.4,40.2 676.4039334821628,79 C 868.4,117.8 1003.68,480 1156.4039334821628,500 C 1309.12,520 1383.28,243.2 1440,179" stroke="rgba(135, 255, 101, 0.78)" stroke-width="2"></path><path d="M -411.7139160322694,270 C -315.71,297.6 -123.71,448.2 68.28608396773056,408 C 260.29,367.8 356.29,72.8 548.2860839677305,69 C 740.29,65.2 836.29,375.2 1028.2860839677305,389 C 1220.29,402.8 1425.94,149 1508.2860839677305,138 C 1590.63,127 1453.66,294.8 1440,334" stroke="rgba(135, 255, 101, 0.78)" stroke-width="2"></path><path d="M -894.8943056244877,127 C -798.89,197.2 -606.89,464.2 -414.8943056244878,478 C -222.89,491.8 -126.89,233.8 65.1056943755122,196 C 257.11,158.2 353.11,283 545.1056943755123,289 C 737.11,295 846.13,220.2 1025.1056943755123,226 C 1204.08,231.8 1357.02,299.6 1440,318" stroke="rgba(135, 255, 101, 0.78)" stroke-width="2"></path></g><defs><mask id="SvgjsMask1006"><rect width="1440" height="560" fill="#ffffff"></rect></mask></defs></svg>